<?xml version="1.0" encoding="utf-8"?>
<!-- Generator: Adobe Illustrator 27.5.0, SVG Export Plug-In . SVG Version: 6.00 Build 0)  -->
<svg version="1.1" id="Layer_1" xmlns="http://www.w3.org/2000/svg" xmlns:xlink="http://www.w3.org/1999/xlink" x="0px" y="0px"
	 viewBox="0 0 3000 2000" style="enable-background:new 0 0 3000 2000;" xml:space="preserve">
<rect style="fill:#FFFFFF;" width="3000" height="2000"/>
<g>
	<g>
		<g>
			<g>
				<g>
					<g>
						<g>
							<path style="fill:#EEA987;" d="M2246.387,503.957c0,0,6.062-16.998-0.038-24.12c-5.187-6.059-6.025-15.463-6.831-19.098
								c-1.075-4.864-7.263-19.149-3.854-19.983c5.771-1.407,15.074,21.726,17.943,26.177c2.869,4.456,9.022-18.792,13.292-22.1
								c4.27-3.308,39.883,9.72,33.925,25.153c-5.96,15.438-18.652,27.134-19.194,30.072c-0.541,2.934-5.044,12.598-5.044,12.598
								L2246.387,503.957z"/>
						</g>
					</g>
				</g>
			</g>
			<g>
				<g>
					<g>
						<g>
							<path style="fill:#EEA987;" d="M2264.71,448.09c0,0,21.19-45.968,25.013-47.775c3.821-1.807,6.095-0.438,4.281,3.95
								c-1.813,4.383-19.267,45.042-19.267,45.042s33.674-49.923,36.501-52.129c1.656-1.293,4.74,1.663,3.976,4.107
								c-0.768,2.445-30.02,53.371-30.02,53.371s31.521-46.551,34.401-47.648c2.523-0.957,6.184,2.334,4.069,5.956
								c-2.114,3.623-29.074,48.588-29.074,48.588s24.944-32.347,27.896-31.743c1.806,0.366,4.743,1.726-1.94,9.855
								c-6.681,8.138-19.466,29.579-19.466,29.579L2264.71,448.09z"/>
						</g>
					</g>
				</g>
			</g>
		</g>
		<g>
			<path style="fill:#FCCCA2;" d="M2121.789,652.947c0,0,23.622-35.718,18.511-58.553c-5.108-22.835-9.833-18.163-9.448-31.215
				c0.384-13.048-4.52-45.995-32.454-49.982c-27.936-3.988-42.934-24.647-87.897-2.172c-44.96,22.474-31,70.322-67.794,80.109
				s-126.394-18.49-137.294,31.173c-10.903,49.659,40.54,59.446,66.092,38.783c25.549-20.658,37.73,18.852,13.286,29.728
				c-24.719,10.995-0.342,56.185,24.87,60.896c25.21,4.711,16.693,34.073,16.693,34.073s120.26-41.143,125.709-61.802
				C2057.516,703.32,2121.789,652.947,2121.789,652.947z"/>
		</g>
		<g>
			<g>
				<g>
					<path style="fill:#292C47;" d="M2469.566,412.398l0.006-0.013c-0.014-0.004-0.029-0.004-0.044-0.013
						c-0.012-0.009-0.021-0.021-0.036-0.025l-0.006,0.013c-5.979-2.67-19.638,29.693-19.638,29.693l5.173,2.623l0.08,0.039
						l5.173,2.619C2460.274,447.334,2475.285,415.655,2469.566,412.398z"/>
				</g>
			</g>
		</g>
		<g>
			<g>
				<g>
					<path style="fill:#DB9B7B;" d="M2184.387,1379.707c-7.037,16.033-106.486,161.044-112.52,177.434
						c-6.024,16.39-47.102,85.505-47.102,85.505l-25.223-18.882c0,0,31.616-95.016,57.799-162.204h0.012
						c2.525-6.521,5.021-12.789,7.425-18.665c9.328-22.831,17.378-40.016,22.165-45.024c18.748-19.587,46.21-46.666,31.134-68.757
						c-15.066-22.092-77.682-142.519-80.025-154.98c-2.342-12.47-91.011-181.872,97.178-112.396c0,0,32.412,105.628,37.098,183.646
						C2177.013,1323.411,2191.413,1363.679,2184.387,1379.707z"/>
				</g>
			</g>
		</g>
		<g>
			<g>
				<g>
					<path style="fill:#DE9673;" d="M2024.77,1642.641c0,0-1.664,15.412,1.884,24.4c3.549,8.988,10.673,48.384,21.148,53.774
						c10.476,5.396,31.885,8.813,31.881,10.638c-0.019,8.273-6.134,13.018-28.243,13.342c-22.106,0.318-43.397-29.847-58.266-51.079
						c-14.868-21.232-34.219-31.343-22.053-45.727c12.165-14.383,29.693-30.267,31.747-33.167
						C2004.922,1611.919,2024.77,1642.641,2024.77,1642.641z"/>
				</g>
			</g>
		</g>
		<g>
			<g>
				<g>
					<path style="fill:#EEA886;" d="M1950.223,1046.839c0,0-32.075,72.078-9.656,118.969
						c22.005,46.028,105.213,149.42,113.096,165.899c7.879,16.479,24.54,38.711,11.374,43.489
						c-17.698,6.42-39.558,11.156-72.401,34.337c-21.672,15.292-57.568,22.286-81.162,33.821
						c-9.345,4.57-12.088,28.243-1.608,33.834c7.76,4.142,194.977-39.621,222.556-58.834c12-8.358,12.063-27.86-2.719-81.359
						c-6.661-24.102-36.139-102.91-45.188-132.455c-8.753-28.57-25.594-71.108-25.594-71.108S2073.505,959.447,1950.223,1046.839z"
						/>
				</g>
			</g>
		</g>
		<g>
			<g>
				<g>
					<path style="fill:#EEA886;" d="M1911.557,1477.436c0,0-18.019-0.511-26.361,0.896s-41.283,2.87-50.422,5.26
						c-9.141,2.385-15.135,14.077-20.241,11.212c-5.104-2.866,4.204-16.646,14.549-24.847c10.346-8.201,40.402-30.417,55.146-45.446
						c14.742-15.025,22.878-17.551,30.666-4.357c7.788,13.192,14.805,33.859,18.336,39.425
						C1936.759,1465.144,1911.557,1477.436,1911.557,1477.436z"/>
				</g>
			</g>
		</g>
		<g>
			<g>
				<path style="fill:#292C47;" d="M2083.181,803.625c0,0-6.579-25.782,3.685-45.114c10.264-19.332,32.045-34.591,38.682-40.977
					c6.638-6.39,64.23-78.307,65.029-81.597c0.801-3.295,14.69-51.742,27.882-80.381c13.192-28.635,27.006-66.087,27.006-66.087
					l75.309,35.884c0,0-67.887,98.927-85.271,124.811c-18.569,27.652-111.73,156.519-111.73,156.519
					S2105.49,838.36,2083.181,803.625z"/>
			</g>
		</g>
		<g>
			<path style="fill:#363636;" d="M2183.527,1306.868c0,0,18.299,21.225-139.103,21.225c0,0-158.433-159.338-108.777-259.328
				c26.269-52.895,193.926-20.225,193.926-20.225S2152.644,1080.924,2183.527,1306.868z"/>
		</g>
		<g>
			<g>
				<path style="fill:#EDDAD3;" d="M2069.455,727.89c0,0,23.416,16.399,31.892,18.201c8.476,1.803,42.353,43.12,48.116,59.714
					c5.762,16.594,0,41.483-11.865,70.7c-11.867,29.217-0.68,38.958-6.104,68.175c-5.422,29.217-10.169,91.078-9.152,107.311
					c1.017,16.233-137.123,19.298-168.65-10.281c0,0,31.688-50.501,35.755-57.711c4.07-7.215,0.68-46.534-3.051-56.631
					c-3.728-10.102-29.348-90.7-29.348-90.7s-19.506-71.257-1.162-86.414c15.934-13.163,59.358-17.857,67.156-20.744
					C2030.839,726.623,2053.521,725.365,2069.455,727.89z"/>
			</g>
		</g>
		<g>
			<g>
				<path style="fill:#EEA886;" d="M2081.105,697.92c0,0-4.871,47.643-3.854,63.158c0,0-25.361,27.041-54.21-31.568
					c0,0,12.14-24.158,3.003-57.078C2016.907,639.516,2081.105,697.92,2081.105,697.92z"/>
			</g>
		</g>
		<g>
			<g>
				<polygon style="fill:#EEA886;" points="2077.251,761.078 2077.251,785.785 2048.062,762.579 				"/>
			</g>
		</g>
		<g>
			<g>
				<path style="fill:#292C47;" d="M2083.291,1073.62c-11.506,58.54-158.996-8.163-158.996-8.163s78.312-62.58,56.874-139.632
					c-2.426-8.716-15.828-47.419-18.006-55.441c-1.74-6.356-3.387-12.483-4.961-18.358c-13.972-52.215-28.054-72.036-28.054-72.036
					s14.905-34.323,44.213-41.275c22.898-5.434,44.278-8.044,44.278-8.044s78.869,112.005,80.505,136.35
					C2100.781,891.378,2094.797,1015.071,2083.291,1073.62z"/>
			</g>
		</g>
		<g>
			<g>
				<path style="fill:#A77860;" d="M2080.101,708.41l-0.896,9.383c0,0-20.103,4.184-46.481-30.05
					C2032.724,687.742,2051.422,712.01,2080.101,708.41z"/>
			</g>
		</g>
		<g>
			<path style="fill:#EDDAD3;" d="M2026.967,717.954c0,0,25.536,11.543,51.927,4.528l2.212,13.949v56.003
				c0,0-46.74-39.464-46.648-41.36c0.095-1.892-13.094-21.05-13.094-21.05L2026.967,717.954z"/>
		</g>
		<g>
			<path style="fill:#363636;" d="M2079.683,1731.453c0,0,1.223-10.132-29.122-10.493c-17.386-0.208-50.886-41.899-54.208-46.798
				c-3.324-4.897-11.872-34.119-17.314-35.016c-5.445-0.897-22.065,19.51-4.934,38.01c17.133,18.503,42.96,67.745,77.334,67.639
				C2078.456,1744.71,2080.422,1736.776,2079.683,1731.453z"/>
		</g>
		<g>
			<path style="fill:#363636;" d="M1918.82,1427.5c0,0-6.449-29.672-27.178-11.45c-20.729,18.228-38.71,36.522-61.278,52.231
				c-22.566,15.71-20.816,25.378-14.178,29.214c6.64,3.83,21.39-10.166,30.179-15.646
				C1855.154,1476.372,1870.608,1451.109,1918.82,1427.5z"/>
		</g>
		<g>
			<path style="fill:#4A4A4A;" d="M2084.934,737.499c0,0,29.01,76.202,14.281,127.71l-15.924,207.501
				c-0.008,0.285,0.01,0.574,0.048,0.859l-0.05,0.046c0,0,3.736,18.801,29.399,13.482c0.022-0.005,0.04-0.009,0.061-0.013
				c0.033-0.009,0.067-0.013,0.1-0.022c0.315-0.047,0.631-0.119,0.947-0.217c24.683-5.565,29.329-21.709,29.329-21.709
				s-12.849-59.56-13.525-80.122c-0.678-20.561,3.242-98.374,3.242-98.374c24.075-51.423,19.572-74.612,19.572-74.612
				c-11.362-41.39-47.222-64.302-47.222-64.302L2084.934,737.499z"/>
		</g>
		<g>
			<path style="fill:#383838;" d="M1987.617,821.009l-24.454,49.375c-1.74-6.356-3.387-12.483-4.961-18.358
				C1958.202,852.025,1980.755,823.25,1987.617,821.009z"/>
		</g>
		<g>
			<path style="fill:#A77860;" d="M2064.778,1442.895c0,0,50.271-15.671,62.575-21.538c-11.588,6.509-64.815,36.424-70,40.203
				C2059.879,1455.038,2062.375,1448.771,2064.778,1442.895z"/>
		</g>
		<g>
			<path style="fill:#EEA886;" d="M2121.563,563.943c0.342,1.088,18.056,47.848-3.748,99.684
				c-21.804,51.836-46.332,51.836-70.18,35.888c-23.848-15.952-33.728-41.326-30.32-86.274
				c3.406-44.948,22.484-82.282,59.278-70.684C2113.388,554.156,2121.563,563.943,2121.563,563.943z"/>
		</g>
		<g>
			<path style="fill:#FCCCA2;" d="M2083.067,570.47c0,0,15.296,36.13,29.638,48.209c14.343,12.083,11.036,27.746,11.036,27.746
				s32.231-66.896-22.276-112.927c-54.511-46.037-94.711,51.832-94.029,82.643c0.681,30.812,3.406,24.651,3.406,24.651
				S2084.77,600.919,2083.067,570.47z"/>
		</g>
		<g>
			<path style="fill:#292C47;" d="M2021.363,729.82c0,0,54.6,44.383,59.479,4.945c0,0,67.348,23.877,76.566,86.041
				c0,0,5.582,24.685-24.205,129.9c-12.99,45.888,26.555,158.114,41.246,256.905c14.69,98.791,31.733,213.542,31.733,213.542
				s-198.262,7.173-371.977-109.127c0,0,62.166-85.245,90.089-173.505c20.873-65.972,27.018-137.867,28.908-150.061
				c1.891-12.194,13.685-121.741-8.142-177.638c0,0-14.908-47.809,17.552-67.796C1962.613,743.026,1975.029,735.411,2021.363,729.82
				z"/>
		</g>
		<g>
			<path style="fill:#292C47;" d="M2371.078,305.444l-101.677-138.242l150.059,72.954l101.677,138.242L2371.078,305.444z"/>
		</g>
		<g>
			<path style="fill:#3B3F66;" d="M2393.423,275.292c-28.984-24.315-55.813-39.528-59.926-33.975L2313,268.974l104.955,88.056
				l20.497-27.661C2442.566,323.815,2422.405,299.606,2393.423,275.292z"/>
		</g>
		<g>
			<path style="fill:#292C47;" d="M2417.955,357.029c-4.113,5.548-30.943-9.664-59.926-33.979
				c-28.984-24.315-49.143-48.524-45.029-54.077c4.113-5.548,30.942,9.66,59.926,33.975
				C2401.908,327.264,2422.069,351.477,2417.955,357.029z"/>
		</g>
		<g>
			<g>
				<path style="fill:#292C47;" d="M2469.065,417.483l-2.106-0.961c3.029-7.521,7.878-27.351-12.477-49.008
					c-21.382-22.751,4.271-53.881,4.533-54.191l1.71,1.62c-0.064,0.077-6.296,7.581-9.922,17.623
					c-4.774,13.227-2.993,24.405,5.297,33.223C2477.446,388.5,2472.277,409.507,2469.065,417.483z"/>
			</g>
		</g>
		<g>
			<polygon style="fill:#E55353;" points="1929.182,1171.884 1745.938,1123.776 1779.375,979.583 1962.619,1027.689 			"/>
		</g>
		<g>
			<g>
				<g>
					<g>
						<g>
							<g>
								<path style="fill:#EEA886;" d="M1793.54,1147.339c0,0-0.853-4.604-0.302-6.807c0,0,1.289-3.933,2.048-6.786
									c0.236-0.905,0.426-1.7,0.495-2.227c0.3-2.202,0.336-7.13,2.448-12.206c2.108-5.072,16.496-24.456,16.496-24.456
									l12.054,5.298l11.952,3.248c0,0,3.994,33.707,2.543,38.673c-0.144,0.485-0.304,0.961-0.485,1.391
									c-1.612,4.081-4.423,6.395-5.498,8.431c-0.399,0.749-4.835,7.879-7.225,8.15c-3.315,0.383-5.758-0.786-7.211-2.661
									c0,0-6.523,0.442-10.096-2.288c0,0-6.003,0.613-9.538-4.132C1801.222,1150.966,1795.064,1150.863,1793.54,1147.339z"/>
							</g>
						</g>
					</g>
				</g>
			</g>
		</g>
		<g>
			<g>
				<path style="fill:#292C47;" d="M2016.154,742.762c0,0,13.442,21.369,2.122,42.95c-11.32,21.581-35.481,38.694-42.834,45.845
					c-7.352,7.151-71.064,87.545-71.94,91.219c-0.871,3.669-23.411,65.9-34.148,99.51c-10.533,32.967-23.609,85.428-23.609,85.428
					l-77.232-27.547c0,0,70.072-145.325,91.116-172.756c21.046-27.435,70.521-127.421,70.521-127.421
					S1967.672,718.384,2016.154,742.762z"/>
			</g>
		</g>
	</g>
	<g>
		<g>
			<g>
				<path style="fill:#EEA886;" d="M2781.831,505.619c0,0,5.094-16.949-2.423-23.693c-6.394-5.735-10.514-17.764-11.789-21.464
					c-1.705-4.95-12.602-18.193-6.38-20.406c6.222-2.213,19.013,20.967,22.668,25.294c3.651,4.325,8.034-20.612,12.423-24.54
					c4.389-3.929,45.28,5.67,40.295,22.435c-4.99,16.766-21.384,31.387-21.676,34.509c-0.293,3.122-3.146,12.342-3.146,12.342
					L2781.831,505.619z"/>
			</g>
		</g>
		<g>
			<g>
				<path style="fill:#EEA886;" d="M2794.242,444.448c0,0,18.678-50.315,22.729-52.626c4.051-2.311,6.717-1.138,5.167,3.64
					c-1.551,4.776-16.638,49.135-16.638,49.135s32.112-55.837,35.017-58.456c1.702-1.533,6.999,0.431,6.406,3.065
					c-0.594,2.634-29.257,59.796-29.257,59.796s30.076-52.079,33.16-53.546c2.698-1.283,7.107,1.74,5.143,5.755
					c-1.966,4.015-27.148,53.931-27.148,53.931s24.274-36.528,27.613-36.232c2.043,0.183,6.7,1.667,0.141,10.898
					c-6.558,9.231-19.743,32.629-19.743,32.629L2794.242,444.448z"/>
			</g>
		</g>
		<g>
			<rect x="2442.047" y="552.358" style="fill:#292929;" width="2.422" height="60.204"/>
		</g>
		<path style="fill:#292929;" d="M2443.296,610.657v-0.012c0,0-0.025,0.005-0.039,0.006c-0.012-0.001-0.023-0.006-0.037-0.006v0.012
			c-5.708,0.268-5.049,29.638-5.049,29.638h5.049h0.076h5.048C2448.344,640.295,2449.003,610.925,2443.296,610.657z"/>
		<g>
			<path style="fill:#272A45;" d="M2779.618,634.388c14.104-27.451,59.805-133.628,59.805-133.628l-58.584-9.024
				c0,0-23.354,53.352-34.466,90.273c-5.415,17.992-12.676,35.661-14.294,38.501c-1.618,2.838-76.392,59.468-84.532,63.629
				c-8.153,4.164-39.454,15.009-54.427,30.213c-14.971,15.192-7.681,36.016-7.681,36.016c31.745,40.834,90.38-12.259,90.38-12.259
				S2759.85,672.867,2779.618,634.388z"/>
		</g>
		<g>
			<path style="fill:#202338;" d="M2661.879,1671.796c0,0,20.152,21.162,40.61,25.595c20.457,4.433,34.769,10.088,34.922,22.232
				c0.154,12.142-58.875,20.144-82.287,7.902c-34.94-18.269-38.492-12.764-42.365-21.894c-3.875-9.133,4.652-33.554,4.4-36.459
				C2616.848,1665.583,2661.879,1671.796,2661.879,1671.796z"/>
		</g>
		<g>
			<path style="fill:#2F6B8C;" d="M2659.613,1661.673c0,0,2.661,9.914,2.266,10.123c-0.396,0.21-46.101,5.333-44.72-2.624
				c1.121-6.451,2.722-13.462,2.722-13.462L2659.613,1661.673z"/>
		</g>
		<g>
			<path style="fill:#202338;" d="M2434.242,1677.314c0,0,14.824,20.612,34.651,25.366c19.553,4.689,32.222,13.609,33.179,25.412
				c0.959,11.801-46.095,27.255-79.155,6.526c-21.724-13.622-29.825-12.848-34.202-21.502c-4.375-8.654,2.293-32.91,1.855-35.722
				C2390.027,1673.923,2434.242,1677.314,2434.242,1677.314z"/>
		</g>
		<g>
			<path style="fill:#2F6B8C;" d="M2433.636,1667.123c0,0,0.977,9.965,0.606,10.191c-0.372,0.227-43.933,7.934-43.672,0.081
				c0.206-6.236,2.76-13.997,2.76-13.997L2433.636,1667.123z"/>
		</g>
		<g>
			<path style="fill:#9E918D;" d="M2613.514,1066.306c0,0,21.166,153.748,29.811,205.724
				c10.107,60.771,13.535,110.982,16.354,142.437c3.545,39.563,3.526,242.023,6.008,253.591c2.482,11.567-53.938,5.809-53.938,5.809
				s-36.588-264.194-47.147-306.326c-9.833-39.231-38.462-208.688-47.433-197.974c-8.972,10.712-36.441,202.673-43.086,233.614
				c-6.644,30.94-34.049,274.973-34.049,274.973s-45.313,12.462-57.492,2.764c0,0,3.956-220.417,8.189-278.426
				c1.613-22.106-13.985-264.659,23.398-362.473C2433.886,988.323,2613.514,1066.306,2613.514,1066.306z"/>
		</g>
		<path style="fill:#272A45;" d="M2551.412,697.57c0,0,56.009,11.581,62.655,17.468c7.214,6.265,19.938,67.608,20.696,84.696
			c0.762,17.087-6.75,88.469-13.966,115.05c-7.216,26.58-5.889,157.503-1.332,194.335c0,0-112.772,32.031-223.653,17.602
			c0,0,18.589-137.74,14.15-174.163c-5.686-46.662-19.366-154.169-19.366-154.169s9.816-74.889,19.689-83.242
			c9.873-8.354,77.901-17.576,77.901-17.576H2551.412z"/>
		<path style="fill:#EEA886;" d="M2528.257,524.385c0,0,67.374-24.93,63.161,64.603c-4.212,89.535-19.999,98.632-64.319,86.128
			c-44.319-12.504-48.034-69.012-53.804-96.194C2467.522,551.74,2506.227,528.294,2528.257,524.385z"/>
		<path style="fill:#EEA886;" d="M2560.224,709.692c0,0-13.865,9.168-66.436-13.99c0,0,1.484-36.043-8.828-69.705
			c-10.313-33.664,70.547,44.885,70.547,44.885c-0.847,0.599-1.009,3.963-0.525,8.656c0.41,3.979,1.281,8.908,2.593,13.911
			C2560.529,704.705,2560.224,699.868,2560.224,709.692z"/>
		<path style="fill:#525252;" d="M2482.659,623.328c0,0-0.191-23.918,9.753-26.119c9.946-2.201,15.07,11.625,15.07,11.625
			l8.007-0.431c0,0-7.156-24.237,2.325-29.794c9.482-5.557,66.205-0.674,73.324-8.833c7.118-8.161-3.204-56.625-18.68-61.38
			c-15.478-4.757-57.752-14.404-84.598,9.501c0,0-23.352,0.444-24.288,19.461C2462.637,556.375,2474.566,610.359,2482.659,623.328z"
			/>
		<path style="fill:#A77860;" d="M2557.574,693.449c-52.22-8.777-60.024-38.476-60.141-38.94
			c20.299,26.18,57.548,25.03,57.548,25.03C2555.392,683.517,2556.263,688.446,2557.574,693.449z"/>
		<path style="fill:#EEA886;" d="M2503.672,587.054c-2.978-7.889-19.78-6.895-18.06,5.613c1.722,12.507,15.608,31.771,21.186,28.159
			C2512.374,617.213,2507.775,597.935,2503.672,587.054z"/>
		<path style="fill:#272A45;" d="M2614.781,714.479c0,0,31.825,42.602,20.037,152.765
			c-21.305,199.062,34.487,518.612,34.487,518.612l-57.558,9.635c0,0-55.002-400.119-40.995-548.373
			c6.384-67.56,25.326-90.038-4.558-146.323C2566.195,700.795,2595.293,701.768,2614.781,714.479z"/>
		<path style="fill:#272A45;" d="M2472.715,699.868c0,0,91.1,92.023,98.234,161.784c7.135,69.762,40.799,533.838,40.799,533.838
			l-238.929-4.252c0,0,19.935-249.398,24.799-280.598c4.865-31.197,14.932-210.332-7.021-293.456
			c-11.794-44.655,2.237-101.308,29.181-107.493C2446.72,703.508,2472.715,699.868,2472.715,699.868z"/>
		<path style="fill:#272A45;" d="M2572.989,701.348c0,0,24.461,7.878,59.57-10.651c35.109-18.53-33.646,50.352-33.646,50.352
			L2572.989,701.348z"/>
		<path style="fill:#272A45;" d="M2708.582,711.483c0,0-70.855,84.919-71.165,104.997c-0.312,20.08-16.845-60.068-16.845-60.068
			L2708.582,711.483z"/>
		<polygon style="fill:#272A45;" points="2593.435,552.034 2653.188,527.861 2542.876,479.247 2401.838,552.034 2467.962,576.474 		
			"/>
		<path style="fill:#C4B5AE;" d="M2472.715,699.868c0,0,54.043,36.394,93.48,45.84c1.64,0.392,0-44.913,0-44.913
			S2533.054,687.532,2472.715,699.868z"/>
		<path style="fill:#EEA886;" d="M2510.399,694.247c0,0,21.427,10.267,38.081,11.802c0,0,8.621-3.217,9.094-12.601L2510.399,694.247
			z"/>
		<path style="fill:#F08D29;" d="M2566.195,745.708v-44.913c0,0,31.664-0.477,41.572-0.448L2566.195,745.708z"/>
		<path style="fill:#EAD8CF;" d="M2557.574,693.449c0,0-2.895,9.5-9.094,12.601l19.392,20.706l-1.677-25.961L2557.574,693.449z"/>
		<path style="fill:#51578F;" d="M2593.222,563.518c0,0-57.846-6.627-122.583,23.086l-5.586-19.963
			c0,0,72.972-27.419,129.454-20.619L2593.222,563.518z"/>
		<path style="fill:#272A45;" d="M2441.07,711.713c0,0,35.086,9.662,15.782,74.059c-15.119,50.438-17.159,61.27-17.159,61.27
			l-80.962-20.224c0,0,23.738-110.792,62.478-116.749C2421.209,710.069,2433.542,708.313,2441.07,711.713z"/>
		<g>
			<g>
				<g>
					<g>
						<g>
							<path style="fill:#EEA886;" d="M2353.621,1185.381c0,0-2.494-5.353-2.441-8.227c0,0,0.495-5.221,0.622-8.952
								c0.037-1.186,0.042-2.218-0.023-2.886c-0.275-2.789-1.713-8.829-0.49-15.713c1.215-6.876,14.104-35.192,14.104-35.192
								l17.282,2.62l16.53,0.146c0,0,15.343,39.943,14.949,46.482c-0.042,0.642-0.106,1.27-0.213,1.857
								c-0.871,5.505-3.833,9.234-4.615,12.073c-0.297,1.04-3.923,11.184-6.95,12.279c-4.198,1.53-7.73,0.884-10.185-0.943
								c0,0-8.354,2.63-13.826,0.433c0,0-7.627,2.673-13.655-1.997C2364.71,1187.36,2356.668,1189.205,2353.621,1185.381z"/>
						</g>
					</g>
				</g>
			</g>
		</g>
		<path style="fill:#272A45;" d="M2445.266,716.026c7.344,2.843,11.75,3.528,7.036,41.137c-1.892,15.104-9.819,61.843-14.782,70.582
			c-4.963,8.739-28.482,76.16-30.054,84.635c-2.285,12.342-2.68,105.271-2.68,109.859c0,10.514,0.244,99.535,0.244,99.535
			l-59.455,8.604c0,0-6.774-102.904-7.965-115.168c-2.74-28.266-3.046-86.925,2.102-118.428
			c5.875-35.954,27.868-106.368,30.995-112.029C2373.832,779.093,2396.705,697.223,2445.266,716.026z"/>
		<path style="fill:#181A2B;" d="M2422.531,860.102c0,0-17.415,49.708-17.865,56.867c-0.447,7.158-1.966,184.012-1.966,184.012
			S2421.352,918.451,2422.531,860.102z"/>
		<path style="fill:#F08D29;" d="M2487.688,697.227l78.507,48.481l-154.552-32.405
			C2411.644,713.304,2418.712,704.918,2487.688,697.227z"/>
		<path style="fill:#EAD8CF;" d="M2493.806,685.738c0,0,27.481,16.577,54.675,20.311l-10.012,27.444l-50.78-36.266L2493.806,685.738
			z"/>
	</g>
	<g>
		<g>
			<path style="fill:#202338;" d="M1319.668,1669.657c0,0-8.16,16.198-13.49,22.626c-5.333,6.428-25.747,17.922-25.858,37.014
				c-0.121,20.706,34.415,14.957,47.919,14.202c13.506-0.758,14.529-11.818,20.216-23.543c5.687-11.72,11.418-9.735,12.483-19.189
				c1.067-9.454-5.508-31.11-5.508-31.11H1319.668z"/>
		</g>
		<g>
			<g>
				<path style="fill:#81807E;" d="M1354.964,1663.406c0,0,1.58,8.835,1.274,9.05c-0.307,0.211-38.277,7.428-38.063,0.091
					c0.17-5.828,3.503-12.622,3.503-12.622L1354.964,1663.406z"/>
			</g>
		</g>
		<g>
			<path style="fill:#EEA886;" d="M1145.935,639.5c0,0,2.596-22.679,2.892-26.157c0.294-3.474-4.111-12.015-9.972-21.355
				c-5.862-9.34-17.708-19.167-19.529-19.159c-1.82,0.004-3.663-0.89-7.486,1.965c-3.823,2.855-5.582,7.503-5.582,7.503
				s-6.268,1.162-8.026,7.065c0,0-5.85,1.38-6.818,8.435c0,0-5.678,1.509-5.974,6.7c0,0,4.403,8.567,5.173,12.241
				c0.767,3.671,14.78,24.516,27.044,39.352C1117.656,656.09,1129.99,662.243,1145.935,639.5z"/>
		</g>
		<g>
			<path style="fill:#CF8C6C;" d="M1126.25,614.716c0,0-5.389,9.944-5.575,13.55c-0.185,3.606-23.903-2.093-23.903-2.093
				S1114.715,608.069,1126.25,614.716z"/>
		</g>
		<g>
			<path style="fill:#DE9D7D;" d="M1120.951,575.212c0,0,14.311,24.06,10.955,26.991c-3.356,2.931-6.261,1.841-6.261,1.841
				l1.67,12.747c0,0-3.374,9.103-11.707,2.535c0,0-2.321,8.846-9.656,1.486c0,0-3.98,5.112-7.943,2.339
				c-3.964-2.773-12.57-18.654-12.57-18.654s-0.4-4.226,5.974-6.7c0,0,0.549-6.816,6.818-8.435c0,0,1.243-5.383,8.026-7.065
				c0,0,3.656-11.773,13.068-9.468C1119.326,572.829,1120.355,574.198,1120.951,575.212z"/>
		</g>
		<g>
			<path style="fill:#EEA886;" d="M1148.454,612.539c0,0-15.817-9.928-26.689-11.313c-2.458-0.313-4.896-0.139-6.096,2.173
				c-1.202,2.309,0.42,7.096,7.066,11.766c6.646,4.674,13.225,13.95,13.225,13.95S1144.111,631.789,1148.454,612.539z"/>
		</g>
		<g>
			<path style="fill:#EEA886;" d="M1733.287,544.597c0,0,7.253-19.39,8.444-22.313c1.194-2.923,8.243-7.718,16.784-12.475
				c8.54-4.757,22.08-7.114,23.537-6.262c1.457,0.852,3.301,0.996,5.194,5.066c1.89,4.07,1.386,8.612,1.386,8.612
				s4.545,3.852,3.528,9.404c0,0,4.119,3.833,1.992,9.939c0,0,3.932,3.856,2.031,8.152c0,0-7.055,4.817-9.183,7.401
				c-2.127,2.588-21.938,12.766-37.871,18.944C1749.131,571.067,1736.711,570.256,1733.287,544.597z"/>
		</g>
		<g>
			<path style="fill:#CF8C6C;" d="M1759.267,533.903c0,0,0.228,10.479-1.105,13.456c-1.337,2.976,20.02,9.46,20.02,9.46
				S1771.247,533.948,1759.267,533.903z"/>
		</g>
		<g>
			<path style="fill:#EEA886;" d="M1779.77,504.705c0,0-21.371,12.614-19.889,16.53c1.484,3.912,4.261,4.391,4.261,4.391
				l-6.584,9.442c0,0-1.042,8.865,8.343,7.484c0,0-1.783,8.174,7.13,5.688c0,0,1.085,5.953,5.402,5.58
				c4.318-0.378,17.752-9.099,17.752-9.099s2.06-3.199-2.031-8.152c0,0,2.365-5.722-1.992-9.939c0,0,1.216-4.893-3.528-9.404
				c0,0,1.915-11.14-6.58-13.678C1782.053,503.547,1780.667,504.166,1779.77,504.705z"/>
		</g>
		<g>
			<g>
				<g>
					<g>
						<path style="fill:#292C47;" d="M1871.201,364.916l-0.004-0.015c-0.014,0.008-0.025,0.019-0.039,0.023
							c-0.014,0.004-0.028,0.004-0.043,0.007l0.004,0.015c-5.832,2.396,5.02,34.596,5.02,34.596l5.24-1.859l0.081-0.027l5.24-1.859
							C1886.701,395.796,1877.218,363.109,1871.201,364.916z"/>
					</g>
				</g>
			</g>
		</g>
		<g>
			<path style="fill:#292C47;" d="M1751.57,397.667l90.456-124.183l-5.471,166.833l-79.029,116.952L1751.57,397.667z"/>
		</g>
		<g>
			<g>
				<path style="fill:#272A45;" d="M1675.933,681.904c20.638-22.773,119.545-85,119.545-85l-65.72-59.681
					c0,0-48.728,53.333-75.356,86.177c-11.061,13.644-24.42,29.793-25.881,32.517c-1.457,2.724-68.857,57.037-76.196,61.024
					c-7.35,3.995-35.563,14.395-49.058,28.978c-13.497,14.569-6.924,34.543-6.924,34.543c28.614,39.164,87.332-5.787,87.332-5.787
					S1648.868,711.768,1675.933,681.904z"/>
			</g>
		</g>
		<g>
			<g>
				<path style="fill:#202338;" d="M1565.244,1664.191c0,0,18.166,20.295,36.605,24.546c18.443,4.255,31.341,9.676,31.479,21.324
					c0.139,11.646-53.067,19.318-74.173,7.579c-31.493-17.523-34.694-12.241-38.186-21c-3.492-8.76,4.194-32.182,3.967-34.966
					C1524.657,1658.23,1565.244,1664.191,1565.244,1664.191z"/>
			</g>
		</g>
		<g>
			<g>
				<path style="fill:#2F6B8C;" d="M1563.202,1654.481c0,0,2.4,9.51,2.042,9.71c-0.355,0.2-41.555,5.115-40.308-2.517
					c1.011-6.187,2.45-12.912,2.45-12.912L1563.202,1654.481z"/>
			</g>
		</g>
		<g>
			<g>
				<path style="fill:#2F6B8C;" d="M1359.507,1659.71c0,0,0.881,9.555,0.546,9.773c-0.333,0.219-39.598,7.608-39.364,0.079
					c0.186-5.983,2.489-13.426,2.489-13.426L1359.507,1659.71z"/>
			</g>
		</g>
		<g>
			<g>
				<path style="fill:#BDAEA7;" d="M1521.65,1083.473c0,0,19.077,147.458,26.87,197.309c9.111,58.285,12.2,106.442,14.738,136.609
					c3.197,37.941,3.18,232.119,5.417,243.213c2.237,11.095-48.617,5.572-48.617,5.572s-32.982-253.388-42.502-293.796
					c-8.863-37.625-34.667-200.146-42.753-189.873c-8.087,10.275-32.848,194.381-38.838,224.058
					c-5.988,29.672-30.691,263.723-30.691,263.723s-29.547,12.083-51.824,2.652c0,0,3.567-211.398,7.381-267.035
					c1.455-21.204-12.604-253.832,21.093-347.646C1359.734,1008.683,1521.65,1083.473,1521.65,1083.473z"/>
			</g>
		</g>
		<g>
			<path style="fill:#272A45;" d="M1465.669,729.823c0,0,50.49,11.109,56.477,16.752c6.502,6.013,17.975,64.846,18.659,81.233
				c0.685,16.391-6.087,84.85-12.59,110.343c-6.505,25.493-5.311,151.061-1.201,186.384c0,0-101.652,30.722-201.599,16.881
				c0,0,16.755-132.105,12.754-167.036c-5.125-44.754-17.456-147.861-17.456-147.861s8.848-71.824,17.747-79.836
				c8.9-8.012,70.219-16.858,70.219-16.858H1465.669z"/>
		</g>
		<g>
			<path style="fill:#EEA886;" d="M1444.8,563.726c0,0,60.729-23.912,56.933,61.959c-3.797,85.868-18.028,94.593-57.977,82.602
				c-39.949-11.992-43.298-66.189-48.5-92.259C1390.054,589.958,1424.94,567.472,1444.8,563.726z"/>
		</g>
		<g>
			<path style="fill:#EEA886;" d="M1473.614,741.449c0,0-12.501,8.793-59.884-13.418c0,0,1.338-34.565-7.958-66.852
				c-9.296-32.287,63.587,43.049,63.587,43.049c-0.762,0.574-0.908,3.802-0.472,8.303c0.369,3.814,1.156,8.544,2.337,13.343
				C1473.888,736.666,1473.614,732.029,1473.614,741.449z"/>
		</g>
		<g>
			<path style="fill:#525252;" d="M1403.696,658.618c0,0-0.171-22.939,8.793-25.048c8.966-2.113,13.584,11.147,13.584,11.147
				l7.218-0.411c0,0-6.453-23.245,2.095-28.575c8.548-5.33,59.677-0.649,66.094-8.473c6.418-7.827-2.889-54.309-16.84-58.87
				c-13.951-4.561-52.057-13.814-76.253,9.114c0,0-21.049,0.426-21.893,18.665C1385.65,594.406,1396.402,646.18,1403.696,658.618z"
				/>
		</g>
		<g>
			<path style="fill:#A77860;" d="M1471.225,725.873c-47.069-8.42-54.105-36.904-54.21-37.35
				c18.299,25.108,51.874,24.007,51.874,24.007C1469.257,716.345,1470.044,721.075,1471.225,725.873z"/>
		</g>
		<g>
			<path style="fill:#EEA886;" d="M1422.638,623.83c-2.682-7.567-17.829-6.612-16.279,5.383
				c1.551,11.996,14.07,30.472,19.097,27.005C1430.483,652.756,1426.337,634.264,1422.638,623.83z"/>
		</g>
		<g>
			<path style="fill:#272A45;" d="M1522.792,746.04c0,0,28.688,40.861,18.06,146.515c-19.201,190.918,31.086,497.396,31.086,497.396
				l-51.879,9.238c0,0-49.582-383.749-36.953-525.938c5.754-64.796,22.828-86.354-4.109-140.336
				C1478.996,732.916,1505.225,733.852,1522.792,746.04z"/>
		</g>
		<g>
			<path style="fill:#272A45;" d="M1394.734,732.029c0,0,82.118,88.256,88.549,155.165c6.431,66.909,36.776,511.995,36.776,511.995
				l-215.37-4.078c0,0,17.97-239.195,22.354-269.117c4.386-29.922,13.458-201.726-6.329-281.449
				c-10.63-42.827,2.016-97.162,26.303-103.096C1371.303,735.519,1394.734,732.029,1394.734,732.029z"/>
		</g>
		<g>
			<path style="fill:#272A45;" d="M1394.431,764.69c-0.859-7.499-11.638-13.15-45.322-19.231
				c-33.683-6.084-51.812,2.192-60.546,4.749c-8.734,2.558-61.845,15.259-66.954,9.031c-5.107-6.228-34.809-60.063-37.469-63.431
				c-2.659-3.369-32.141-62.484-32.141-62.484l-76.631,33.528c0,0,84.401,112.202,90.085,122.354
				c5.685,10.155,21.713,33.169,50.437,31.37c29.192-1.83,96.359-1.158,101.996-2.731
				C1323.525,816.268,1400.125,814.265,1394.431,764.69z"/>
		</g>
		<g>
			<path style="fill:#272A45;" d="M1485.122,733.448c0,0,22.045,7.556,53.695-10.215c31.646-17.771-30.327,48.292-30.327,48.292
				L1485.122,733.448z"/>
		</g>
		<g>
			<path style="fill:#272A45;" d="M1607.345,743.169c0,0-63.869,81.443-64.149,100.701c-0.279,19.258-15.185-57.61-15.185-57.61
				L1607.345,743.169z"/>
		</g>
		<g>
			<path style="fill:#C4B5AE;" d="M1394.734,732.029c0,0,48.713,34.905,84.262,43.962c1.479,0.377,0-43.076,0-43.076
				S1449.123,720.196,1394.734,732.029z"/>
		</g>
		<g>
			<path style="fill:#EEA886;" d="M1428.702,726.635c0,0,19.315,9.849,34.326,11.321c0,0,7.771-3.086,8.197-12.083L1428.702,726.635
				z"/>
		</g>
		<g>
			<path style="fill:#F08D29;" d="M1408.231,729.495l70.765,46.497l-142.642-32.464
				C1336.354,743.527,1358.655,734.199,1408.231,729.495z"/>
		</g>
		<g>
			<path style="fill:#F08D29;" d="M1478.996,775.992v-43.076c0,0,28.544-0.457,37.475-0.43L1478.996,775.992z"/>
		</g>
		<g>
			<path style="fill:#EAD8CF;" d="M1413.744,718.476c0,0,24.773,15.9,49.284,19.48l-9.025,26.323l-45.772-34.784L1413.744,718.476z"
				/>
		</g>
		<g>
			<path style="fill:#EAD8CF;" d="M1471.225,725.873c0,0-2.609,9.11-8.197,12.083l17.478,19.861l-1.51-24.901L1471.225,725.873z"/>
		</g>
		<g>
			<path style="fill:#EEA886;" d="M1742.363,521.808c0,0,16.766-0.588,26.051,3.369c2.099,0.895,3.982,2.169,3.992,4.58
				c0.011,2.415-3.259,5.492-10.509,6.141c-7.25,0.653-16.34,5.021-16.34,5.021S1737.924,539.263,1742.363,521.808z"/>
		</g>
		<g>
			<path style="fill:#3B3F66;" d="M1795.763,413.937c8.239-32.977,10.399-60.994,4.818-62.571l-24.428-6.907l-29.458,119.528
				l24.048,6.805C1776.324,472.369,1787.523,446.914,1795.763,413.937z"/>
		</g>
		<g>
			<path style="fill:#292C47;" d="M1746.315,463.882c-7.441-2.105-6.796-30.544,1.443-63.525
				c8.243-32.977,20.953-58.002,28.395-55.898c7.442,2.105,6.793,30.545-1.446,63.522
				C1766.468,440.957,1753.758,465.987,1746.315,463.882z"/>
		</g>
		<g>
			<g>
				<path style="fill:#292C47;" d="M1871.18,367.568c-7.297-18.926-18.833-31.295-33.362-35.772
					c-10.994-3.388-19.945-1.094-20.034-1.071l-0.411-1.754c0.375-0.102,9.416-2.43,20.836,1.063
					c10.518,3.218,25.052,12.222,34.546,36.847L1871.18,367.568z"/>
			</g>
		</g>
		<g>
			<path style="fill:#272A45;" d="M1289.244,818.939c0,0,34.768,39.345,37.359,57.554l3.723-69.802L1289.244,818.939z"/>
		</g>
	</g>
	<g>
		<path style="fill:#2E334D;" d="M359.547,613.961c0,0,15.098-28.619,10.864-58.263c-4.237-29.642-30.276-73.945-83.058-61.891
			c0,0-39.703,60.055-42.963,62.334c0,0-7.392,65.97-5.69,101.888c2.231,47.13,25.806,73.678,38.834,114.722
			c13.031,41.045,34.648,1.339,34.648,1.339l37.025-1.785l-19.189-151.456L359.547,613.961z"/>
		<path style="fill:#717BC7;" d="M272.033,500.647c0,0-26.398,8.565-23.777,42.998C248.255,543.646,252.813,514.003,272.033,500.647
			z"/>
		<path style="fill:#292C47;" d="M454.084,928.093c-2.323-11.359-13.227-27.451-14.509-43.86
			c-1.282-16.413-23.118-80.405-23.503-90.056c-0.385-9.65-11.337-53.568-21.745-72.565c-10.634-19.407-45.12-31.14-45.12-31.14
			s17.836,95.18,17.637,114.954c-0.061,5.951,1.839,16.774,4.588,29.234c0.023,0.096,0.044,0.196,0.061,0.296
			c0.578,2.746,0.598,5.094,0.341,7.229c-0.876,7.111-4.926,11.867-2.441,21.203l-0.047,4.982c0.247,0.932,0.494,1.87,0.74,2.811
			c3.51,13.461,6.749,27.816,8.267,34.252c0.318,1.337,0.558,2.334,0.71,2.908c2.323,8.705-0.51,4.072,3.608,25.87
			C382.671,934.211,458.567,949.989,454.084,928.093z"/>
		<path style="fill:#EEA886;" d="M220.658,989.638c0,0-29.492,38.344-37.492,83.836c-8,45.491,4.724,198.175,4.376,220.658
			c-0.348,22.483-21.265,78.434-17.082,120.788c4.183,42.354,39.077,255.578,39.077,255.578l27.466-5.064
			c0,0-3.273-221.233-0.66-239.012c2.614-17.779,7.862-82.581,8.907-89.901c1.048-7.32,66.388-199.543,66.388-232.342
			C311.638,1071.382,291.77,936.129,220.658,989.638z"/>
		<path style="fill:#EEA886;" d="M368.808,1004.627c0,0,48.454,184.927,54.206,210.549c5.751,25.621,14.083,46.753,14.083,57.631
			c0,25.24,9.782,73.865,9.782,73.865l52.788,298.102h-30.255c0,0-74.848-194.881-83.271-239.055
			c-6.478-33.997-7.716-76.695-12.943-91.336c-5.228-14.642-93.976-174.503-93.976-174.503S219.437,950.942,368.808,1004.627z"/>
		<path style="fill:#292C47;" d="M437.097,1272.807c0,0-112.072,48.118-278.938,48.118c0,0,7.32-217.396,31.581-271.845
			c24.261-54.448,182.934-29.952,182.934-29.952S437.097,1227.189,437.097,1272.807z"/>
		<g>
			<path style="fill:#EDDAD3;" d="M313.934,676.347c0,0,25.877,12.22,34.864,14.017c8.984,1.797,43.845,47.081,49.955,63.613
				c6.11,16.533,0,41.332-12.579,70.442c-12.578,29.111-0.72,38.815-6.468,67.926c-5.752,29.111-5.749,108.475-4.67,124.648
				c1.079,16.172-157.642,56.585-191.069,27.116c0,0,22.276-77.968,40.504-117.458c3.513-7.609,5.363-41.493,1.41-51.558
				c-3.953-10.063-48.518-85.178-48.518-85.178s-9.214-74.936,10.235-90.037c16.889-13.118,68.866-19.045,77.133-21.921
				C272.996,675.084,297.044,673.831,313.934,676.347z"/>
		</g>
		<g>
			<path style="fill:#292C47;" d="M386.171,824.415c-12.571,29.111-0.717,38.822-6.461,67.931
				c-5.755,29.108-5.748,108.475-4.676,124.649c1.089,16.166-151.874,61.557-185.294,32.085c0,0,2.925-35.415,13.9-67.9
				c1.359-4.012,2.749-8.06,4.165-12.082c5.444-15.512,11.236-30.678,16.663-42.442c3.513-7.616,5.366-41.5,1.407-51.564
				c-1.521-3.885-9.103-17.464-17.816-32.668c-3.648-6.335-7.489-12.971-11.175-19.287c-10.374-17.8-19.513-33.221-19.513-33.221
				s-9.221-74.938,10.221-90.031c6.645-5.157,18.706-9.204,31.406-12.399c4.764-1.188,9.64-2.26,14.33-3.222
				c14.607-3.023,27.605-4.982,31.405-6.299c8.26-2.877,32.305-4.13,49.208-1.615c0,0,25.867,12.217,34.854,14.014
				c8.984,1.797,44.511,45.527,50.618,62.046C405.529,768.947,398.753,795.307,386.171,824.415z"/>
		</g>
		<g>
			<path style="fill:#EEA886;" d="M326.289,646.494c0,0-0.649,5.953-1.427,14.347c-0.365,3.821-0.754,8.163-1.146,12.658
				c-1.089,13.464-2.026,28.435-1.505,35.921c0,0-26.901,26.927-57.468-31.451c0,0,12.866-24.066,3.172-56.868
				C258.22,588.299,326.289,646.494,326.289,646.494z"/>
		</g>
		<path style="fill:#EAD8CF;" d="M244.073,682.107c0,0,86.135,50.942,86.135,50.682c0-3.67,7.219-46.199,7.219-46.199
			s-12.656-7.257-16.22-7.942c-3.561-0.686-56.147-1.351-56.147-1.351L244.073,682.107z"/>
		<path style="fill:#FCCCA2;" d="M473.953,1641.609c0,0,10.556-9.393,15.831-10.503c5.272-1.11,10.269-0.833,12.487,1.664
			c2.222,2.498,8.622,12.49,12.081,15.542c3.462,3.053,28.163,26.92,33.989,28.585c5.829,1.665,31.084,0.278,29.694,14.987
			c-1.386,14.709-10.167,15.086-46.803,11.755c-36.633-3.33-35.855-4.882-56.393-9.323c-20.538-4.439-19.679-17.195-16.071-29.685
			c3.608-12.488,9.153-19.858,8.372-23.547C466.382,1637.513,473.953,1641.609,473.953,1641.609z"/>
		<path style="fill:#FCCCA2;" d="M215.126,1668.245c0,0,11.699-5.309,19.493-5.03c7.79,0.279,6.956,5.054,8.907,7.955
			c1.947,2.899,20.315,30.732,25.326,35.741c5.011,5.01,22.824,10.298,20.318,22.822c-2.505,12.524-25.049,17.533-52.879,13.915
			c-27.835-3.617-28.846-27.528-33.299-33.373c-4.454-5.844-2.049-45.39,2.404-48.034
			C209.848,1659.598,215.126,1668.245,215.126,1668.245z"/>
		<path style="fill:#EEA886;" d="M419.93,925.116c0,0,16.839-0.247,15.3-6.313c-1.542-6.066-13.339-2.747-13.339-2.747
			L419.93,925.116z"/>
		<path style="fill:#C48A6F;" d="M324.997,659.405c-0.365,3.819-0.89,9.598-1.281,14.093c-25.887-9.409-36.569-26.824-36.569-26.824
			C293.801,652.108,324.997,659.405,324.997,659.405z"/>
		<path style="fill:#292C47;" d="M190.936,805.439c0,0-0.669,101.597-15.75,268.399c-12.206,134.974-35.138,379.653-35.138,379.653
			s215.712,14.73,359.619-18.749c0,0-94.939-372.229-98.523-441.392c-3.581-69.164,4.903-158.343-0.903-211.908
			C394.435,727.875,190.936,805.439,190.936,805.439z"/>
		<g>
			<path style="fill:#DB9C7C;" d="M464.157,858.7c0,0,19.463-8.215,22.472-9.377c3.013-1.162,11.797,0.835,21.684,4.008
				c9.887,3.172,21.823,11.883,22.31,13.608c0.487,1.723,1.778,3.238,0.274,7.581c-1.505,4.341-5.164,7.185-5.164,7.185
				s0.663,6.225-4.111,9.388c0,0,0.354,5.885-5.654,8.592c0,0,0.189,5.755-4.342,7.351c0,0-8.808-1.988-12.281-1.781
				c-3.473,0.206-20.754-6.903-37.258-14.734C462.087,890.521,442.777,884.31,464.157,858.7z"/>
		</g>
		<polygon style="fill:#EDDAD3;" points="516.022,815.291 501.253,1001.3 381.867,991.818 391.974,805.439 		"/>
		<path style="fill:#EEA886;" d="M353.535,920.465c0,0,4.842,1.388,8.565-0.306c6.427-2.925,10.654-13.204,20.23-9.834
			c9.579,3.37,7.432,36.776,3.73,42.225c-3.699,5.449-17.86,4.915-36.984-4.586C329.95,938.464,353.535,920.465,353.535,920.465z"/>
		<path style="fill:#EEA886;" d="M378.945,909.658c0,0,15.043-1.32,31.97-0.72c14.851,0.526,33.211,3.251,33.127,6.989
			c-0.132,5.679-14.929,1.721-29.685,2.196c-13.586,0.438-10.831,2.653-10.831,2.653s-0.75-0.674,14.154,1.758
			c16.027,2.615,33.13,6.094,33.116,9.158c-0.013,3.799-0.338,4.271-6.306,4.283c3.432,0.737,3.723,1.792,3.554,3.268
			c-0.873,7.638-25.008,7.502-34.591,7.444c7.361,0.09,12.758,0.954,9.204,5.282c-4.064,4.952-38.185,3.202-50.462,3.762
			C358.806,956.341,378.945,909.658,378.945,909.658z"/>
		<path style="fill:#3C3F66;" d="M200.833,691.592c10.787-0.896,36.64,11.635,36.975,41.58c0.25,22.404,0.358,41.703-0.386,50.567
			c-0.747,8.866-0.845,68.188,4.413,73.717c6.662,7.004,44.143,25.219,47.558,27.417c11.78,7.584,69.85,31.987,69.85,31.987
			l-27.345,109.867c0,0-132.495-89.679-145.753-99.596c-8.733-6.533-16.064-32.194-19.611-60.229
			c-3.601-28.492-1.613-96.475-1.201-102.184C165.746,759.007,161.475,694.856,200.833,691.592z"/>
		<g>
			<path style="fill:#EEA886;" d="M528.063,866.008c0,0-24.883-7.244-26.956-3.51c-2.871,5.174,0.054,6.393,0.054,6.393
				l-11.784,1.657c0,0-7.179,5.503,0.91,11.716c0,0-7.24,4.443,1.288,9.513c0,0-3.469,5.063,0.068,8.108
				c3.533,3.044,19.983,7.151,19.983,7.151s3.862-0.693,4.342-7.351c0,0,5.911-2.252,5.654-8.592c0,0,4.449-2.543,4.111-9.388
				c0,0,9.481-6.448,4.889-14.766C530.622,866.939,529.128,866.313,528.063,866.008z"/>
		</g>
		<g>
			<rect x="212.83" y="524.331" style="fill:#292929;" width="2.438" height="60.609"/>
		</g>
		<path style="fill:#292929;" d="M214.088,583.024v-0.012l-0.041,0.007c-0.013,0-0.023-0.007-0.023-0.007l-0.013,0.012
			c-5.748,0.271-5.082,29.84-5.082,29.84h5.082h0.078h5.082C219.17,612.864,219.833,583.294,214.088,583.024z"/>
		<path style="fill:#D14747;" d="M489.398,977.255c0,6.561-5.318,11.882-11.881,11.882c-6.564,0-11.882-5.32-11.882-11.882
			c0-6.563,5.319-11.882,11.882-11.882C484.079,965.373,489.398,970.692,489.398,977.255z"/>
		<path style="fill:#D14747;" d="M483.542,972.285c0,0,9.822,31.025,14.063,38.169l-13.17,4.463c0,0-6.249-22.766-6.918-39.282
			L483.542,972.285z"/>
		<path style="fill:#D14747;" d="M471.491,973.71c0,0-9.819,31.023-14.063,38.166l13.17,4.464c0,0,6.248-22.766,6.918-39.282
			L471.491,973.71z"/>
		<path style="fill:#F08D29;" d="M265.06,677.297l65.148,55.492l-129.375-41.197C200.833,691.592,223.122,678.263,265.06,677.297z"
			/>
		<path style="fill:#F08D29;" d="M330.208,732.789l-6.945-53.47c0,0,26.046,6.88,44.217,19.286L330.208,732.789z"/>
		<path style="fill:#EAD8CF;" d="M267.59,670.914l55.96,4.669l-0.287,3.736c0,0-47.271,1.677-58.202-2.021L267.59,670.914z"/>
		<path style="fill:#EEA886;" d="M319.053,505.99c0,0,56.024,29.718,42.871,96.95c-13.153,67.23-47.256,57.487-53.589,55.538
			c-6.334-1.948-41.411-13.64-46.767-63.333C256.208,545.453,267.9,489.427,319.053,505.99z"/>
		<path style="fill:#2E334D;" d="M346.174,552.435c0,0-12.342,38.974-65.282,46.77c-52.941,7.793-20.514-74.376-20.514-74.376
			s16.94-29.556,42.922-25.009c38.033,6.656,58.567,46.445,60.626,64.957c2.059,18.513,3.358,23.817,3.358,23.817
			S357.866,559.255,346.174,552.435z"/>
		<polygon style="fill:#272A45;" points="365.245,524.003 425.401,499.667 314.343,450.725 172.346,524.003 240.076,549.208 		"/>
		<path style="fill:#51578F;" d="M364.636,536.136c0,0-55.44-6.264-120.424,23.563l-8.027-20.629c0,0,73.249-27.521,129.946-20.697
			L364.636,536.136z"/>
	</g>
	<g>
		<path style="fill:#E8734D;" d="M800.79,625.583c0,0-14.333-28.11-10.313-57.224c4.02-29.118,28.741-72.628,78.842-60.792
			c0,0,37.689,58.986,40.782,61.225c0,0,7.016,64.795,5.401,100.075c-2.118,46.292-24.495,72.368-36.864,112.682
			c-12.369,40.311-32.888,1.315-32.888,1.315l-35.146-1.755L828.82,632.35L800.79,625.583z"/>
		<g>
			<path style="fill:#EEA886;" d="M608.483,448.385c0,0,4.139-23.305,4.663-26.884c0.526-3.583-3.646-12.718-9.317-22.776
				c-5.673-10.063-17.69-21.025-19.627-21.14c-1.938-0.119-3.846-1.165-8.09,1.533c-4.244,2.701-6.397,7.395-6.397,7.395
				s-6.744,0.785-8.975,6.778c0,0-6.31,1.039-7.769,8.277c0,0-6.136,1.185-6.764,6.537c0,0,4.166,9.166,4.762,13.017
				c0.595,3.851,10.523,22.301,22.677,38.479C573.646,459.6,586.379,478.005,608.483,448.385z"/>
		</g>
		<g>
			<path style="fill:#CF8C6C;" d="M589.029,421.409c0,0-6.338,9.937-6.755,13.657c-0.416,3.721-25.32-3.763-25.32-3.763
				S577.154,413.761,589.029,421.409z"/>
		</g>
		<polygon style="fill:#2F4563;" points="432.831,332.887 494.804,468.82 698.344,369.465 636.371,233.536 		"/>
		<g>
			<path style="fill:#EEA886;" d="M612.8,420.639c0,0-16.235-11.334-27.726-13.491c-2.598-0.491-5.203-0.476-6.621,1.839
				c-1.418,2.314,0.018,7.376,6.808,12.656c6.789,5.28,13.232,15.324,13.232,15.324S607.008,440.277,612.8,420.639z"/>
		</g>
		<path style="fill:#EEA987;" d="M604.377,419.213c0,0,10.686,47.154,24,65.041c13.315,17.887-29.824,16.374-29.824,16.374
			l-13.617-64.911L604.377,419.213z"/>
		<g>
			<path style="fill:#272A45;" d="M805.904,747.242c0,0,5.131-26.708-6.916-45.598c-12.044-18.891-35.858-32.778-43.233-38.778
				c-7.374-6.001-72.481-74.823-73.541-78.115c-1.061-3.291-20.153-44.801-35.893-72.938
				c-15.741-28.133-34.111-72.065-34.111-72.065l-76.116,60.91c0,0,80.173,76.896,100.109,101.922
				c21.293,26.731,127.463,150.808,127.463,150.808S784.937,784.238,805.904,747.242z"/>
		</g>
		<g>
			<path style="fill:#1D3B54;" d="M652.409,1694.271c0,0-28.206,39.291-24.337,45.518c3.87,6.227,33.531,7.115,51.586,0
				c18.055-7.116,18.485-53.163,26.652-72.946c3.418-8.284-3.898-32.731-14.187-34.506c-10.288-1.774-21.479,3.438-21.479,3.438
				S681.317,1663.639,652.409,1694.271z"/>
		</g>
		<g>
			<g>
				<path style="fill:#EEA886;" d="M670.455,1635.456c0,0-5.934,16.729-8.103,32.705c-1.798,13.25-20.093,41.379-19.234,44.938
					c0.859,3.559,24.073,6.782,33.531-2.391c9.456-9.174,15.542-35.854,17.623-51.809c1.94-14.864,4.388-22.206,4.388-22.206
					S679.482,1625.67,670.455,1635.456z"/>
			</g>
		</g>
		<g>
			<polygon style="fill:#1D3B54;" points="707.065,1663.387 707.065,1704.521 701.907,1704.521 701.907,1672.725 			"/>
		</g>
		<g>
			<path style="fill:#1D3B54;" d="M897.911,1694.922c0,0-27.189,38.64-23.319,44.867c3.868,6.227,33.529,7.115,51.584,0
				c18.055-7.116,18.485-53.163,26.652-72.946c3.42-8.284-3.897-32.731-14.185-34.506c-10.289-1.774-22.354,3.813-22.354,3.813
				S926.818,1664.29,897.911,1694.922z"/>
		</g>
		<g>
			<g>
				<path style="fill:#EEA886;" d="M916.288,1636.15c0,0-2.149,18.234-5.588,31.137c-3.438,12.897-21.923,42.253-21.064,45.813
					c0.861,3.559,24.073,6.782,33.531-2.391c9.456-9.174,16.764-35.731,17.624-51.809c0.861-16.078-2.148-26.563-2.148-26.563
					S925.316,1626.363,916.288,1636.15z"/>
			</g>
		</g>
		<g>
			<polygon style="fill:#1D3B54;" points="953.583,1663.387 953.583,1704.521 948.425,1704.521 948.425,1672.725 			"/>
		</g>
		<g>
			<g>
				<path style="fill:#4F5E8F;" d="M780.424,996.512c0,0-24.203,116.502-29.761,145.835c-5.559,29.332-21.122,171.396-22.79,195.552
					c-1.668,24.159-25.256,115.176-24.143,123.805c1.111,8.626-36.295,179.822-36.295,179.822s38.503,10.837,44.985,3.533
					c5.503-6.199,60.822-162.744,60.822-205.878c0-59.627,43.466-135.547,48.966-148.885
					c51.076-123.929,40.167-163.736,46.836-171.787c6.671-8.051,7.249,4.974,11.139,22.803
					c3.892,17.829,12.224,171.971,17.226,191.528c5.003,19.554,1.119,85.698,3.897,119.059
					c2.779,33.359,5.979,182.822,5.979,182.822s27.889,6.633,41.139,0.241c3.822-1.847,13.465-166.503,14.02-206.188
					c0.556-39.687,1.148-94.416,2.224-111.578c10.299-164.457,22.203-190.23-17.663-306.62
					C872.368,792.653,780.424,996.512,780.424,996.512z"/>
			</g>
		</g>
		<g>
			<path style="fill:#EDDAD3;" d="M843.075,686.102c0,0-25.261,12.342-34.034,14.159c-8.772,1.816-42.806,47.56-48.77,64.259
				c-5.966,16.699,0,41.751,12.28,71.156c12.28,29.41,0.702,39.211,6.316,68.616c5.614,29.409,10.526,91.672,9.473,108.007
				c-1.052,16.339,141.915,19.424,174.546-10.35c0,0-32.796-50.821-37.006-58.083c-4.211-7.261-0.702-46.836,3.159-56.998
				c3.858-10.165,29.546-96.611,29.546-96.611s21.016-66.393,2.031-81.648c-16.49-13.25-61.435-17.975-69.504-20.879
				C883.041,684.826,859.566,683.562,843.075,686.102z"/>
		</g>
		<g>
			<path style="fill:#97A6CC;" d="M895.665,688.903c0,0-35.457,55.68-37.151,80.184c-1.694,24.505,13.178,207.817,25.086,266.743
				c11.91,58.926,84.958,2.571,84.958,2.571s-44.822-106.06-22.627-183.604c22.197-77.544,30.265-108.543,30.265-108.543
				s-7.638-43.185-34.701-49.262C917.766,691.666,895.665,688.903,895.665,688.903z"/>
		</g>
		<g>
			<path style="fill:#97A6CC;" d="M757.938,771.957c0,0-6.399,23.417,18.518,75.172c0,0-0.396,66.24-1.098,86.936
				c-0.702,20.692-14.843,95.101-14.843,95.101l34.044,18.761c4.962,3.008,11.108-1.165,10.415-7.073
				c-6.977-59.55-29.678-285.438,19.357-346.157l-19.675,6.005C804.656,700.701,769.698,730.298,757.938,771.957z"/>
		</g>
		<path style="fill:#272A45;" d="M826.542,687.861c0,0-47.716-8.346-59.251-16.672l31.77,63.826L826.542,687.861z"/>
		<path style="fill:#272A45;" d="M785.805,714.553c0,0-25.717,26.16-28.604,69.566c-2.886,43.407,1.352,158.717-5.004,192.038
			c-6.355,33.321-94.523,556.695-94.523,556.695s148.494,59.185,340.23,0c0,0-15.827-534.145-36.518-591.867
			c-20.691-57.722,7.708-227.367,7.708-227.367s-6.386-21.271-67.786-23.941L785.805,714.553z"/>
		<g>
			<path style="fill:#D6C5BE;" d="M835.006,744.372l-15.35-18.6l13.328-48.966C832.984,676.806,837.461,704.073,835.006,744.372z"/>
		</g>
		<g>
			<path style="fill:#EEA886;" d="M831.018,655.938c0,0,5.04,47.955,3.989,63.565c0,0,26.249,27.217,56.106-31.773
				c0,0-12.564-24.313-3.107-57.446C897.459,597.154,831.018,655.938,831.018,655.938z"/>
		</g>
		<g>
			<polygon style="fill:#FAE6DE;" points="819.656,725.772 799.061,735.015 832.984,676.806 			"/>
		</g>
		<g>
			<path style="fill:#A77860;" d="M832.057,669.341l1.114,9.668c0,0,20.618,3.989,47.918-30.466
				C881.089,648.543,861.74,672.967,832.057,669.341z"/>
		</g>
		<g>
			<polygon style="fill:#EEA886;" points="835.006,719.503 835.006,744.372 865.215,721.014 			"/>
		</g>
		<g>
			<polygon style="fill:#D6C5BE;" points="835.006,744.372 847.549,728.305 889.801,684.734 897.092,694.696 			"/>
		</g>
		<g>
			<polygon style="fill:#FAE6DE;" points="847.549,728.305 865.215,752.266 901.308,689.677 889.801,684.734 			"/>
		</g>
		<path style="fill:#EEA886;" d="M839.178,519.085c0,0-53.339,29.275-40.815,95.503c12.523,66.233,44.991,56.634,51.019,54.714
			c6.029-1.92,39.425-13.438,44.528-62.393C899.011,557.959,887.88,502.766,839.178,519.085z"/>
		<path style="fill:#E8734D;" d="M813.359,564.837c0,0,11.75,38.394,62.153,46.073c50.401,7.679,19.527-73.267,19.527-73.267
			s-16.127-29.114-40.863-24.639c-36.21,6.56-55.758,45.755-57.719,63.991c-1.961,18.239-3.198,23.465-3.198,23.465
			S802.227,571.558,813.359,564.837z"/>
		<path style="fill:#717BC7;" d="M883.859,514.284c0,0,25.06,8.415,22.573,42.234C906.432,556.518,902.103,527.404,883.859,514.284z
			"/>
		<g>
			<rect x="947.954" y="535.401" style="fill:#292929;" width="2.315" height="59.534"/>
		</g>
		<path style="fill:#292929;" d="M949.075,593.051v-0.012c0,0,0.024,0.008,0.037,0.008l0.035-0.008v0.012
			c5.455,0.264,4.825,29.309,4.825,29.309h-4.825h-0.072h-4.823C944.251,622.36,943.62,593.315,949.075,593.051z"/>
		<polygon style="fill:#272A45;" points="795.382,537.225 738.276,513.322 843.7,465.252 978.487,537.225 914.198,561.982 		"/>
		<path style="fill:#51578F;" d="M795.781,548.782c0,0,52.782-6.173,114.652,23.21l7.64-20.32c0,0-69.737-27.114-123.717-20.389
			L795.781,548.782z"/>
		<g>
			<g>
				<g>
					<g>
						<g>
							<path style="fill:#EEA886;" d="M1024.737,1118.688c0,0,2.058-4.571,2.015-7.023c0,0-0.409-4.46-0.515-7.645
								c-0.03-1.012-0.033-1.893,0.022-2.464c0.226-2.38,1.411-7.537,0.403-13.415c-1.003-5.866-11.637-30.041-11.637-30.041
								l-14.259,2.237l-13.639,0.123c0,0-12.658,34.1-12.333,39.682c0.035,0.545,0.089,1.085,0.176,1.583
								c0.718,4.701,3.163,7.886,3.809,10.308c0.244,0.889,3.237,9.549,5.734,10.483c3.464,1.307,6.377,0.755,8.402-0.805
								c0,0,6.892,2.245,11.406,0.368c0,0,6.293,2.283,11.267-1.705C1015.588,1120.375,1022.225,1121.949,1024.737,1118.688z"/>
						</g>
					</g>
				</g>
			</g>
		</g>
		<path style="fill:#272A45;" d="M907.384,691.417c0,0,41.097-2.621,61.71,22.202c20.614,24.818,19.488,54.289,24.736,67.087
			c5.248,12.798,17.24,67.865,19.864,76.785c2.624,8.92,16.037,44.572,24.945,98.938c6.543,39.946,17.403,121.797,17.403,121.797
			l-75.807-14.22c0,0,4.476-70.654,3.476-112.279c-1-41.628-33.731-115.176-46.1-147.363
			C925.245,772.175,876.004,711.61,907.384,691.417z"/>
	</g>
</g>
</svg>
